<svg xmlns="http://www.w3.org/2000/svg" width="152" height="152">
  <circle cx="76" cy="76" r="75" fill="none" stroke="#1b243a" stroke-miterlimit="10" stroke-width="2"/>
  <path d="M101 37.7a13 13 0 1 1-13-13 13 13 0 0 1 13 13z" fill="#febf02"/>
  <path d="M101 37.7a13 13 0 1 1-13-13 13 13 0 0 1 13 13z" fill="none" stroke="#1b243a" stroke-linecap="round" stroke-miterlimit="10" stroke-width="2.1"/>
  <path d="M83 34.8a6.4 6.4 0 0 1 2-3.8 6.5 6.5 0 0 1 4.2-1.3 7.6 7.6 0 0 1 1.7.2 9.2 9.2 0 0 1 1.5.4l-.7 2.6a10.2 10.2 0 0 0-1.1-.3 6.1 6.1 0 0 0-1.4-.2 3.4 3.4 0 0 0-2 .6 3.3 3.3 0 0 0-1.1 1.7H91l-.4 2.2h-4.8v1.5h4.4l-.4 2.2H86a2.8 2.8 0 0 0 3 2.3 8.4 8.4 0 0 0 1.5 0 7.6 7.6 0 0 0 1.5-.5l.6 2.5a7.2 7.2 0 0 1-1.5.6 9.6 9.6 0 0 1-2.2.2 6 6 0 0 1-4.3-1.4 6.7 6.7 0 0 1-2-3.7h-1.5v-2.2h1.4a3.5 3.5 0 0 1 0-.4v-.7a2.3 2.3 0 0 1 0-.4h-1.4v-2.2z" fill="#fea502"/>
  <path d="M122.1 73.3c0-11.3-7.5-23.8-21.2-30.4V46a30 30 0 0 0-3.6-1.6 51.8 51.8 0 0 0-18.6-3.3l-4.1.2v-3.1c-1.5 0-3 .2-4.5.4v-.1s-7.6-11-11-9.9c-1 .3-1.5 1.3-2 2.6-1.6-.7-3.1-1-4.1-.4-2.6 1.6-1.6 8.4-.6 13.1a30.2 30.2 0 0 0-17.7 21.6h-7.5c-2.3 0-3.1 5.2-3.1 11.5s.8 11.5 3.1 11.5h7.5c1.9 6.4 7.4 11 12.4 15.3v14c0 1.5 3.3 2.7 7.4 2.7s7.4-1.2 7.4-2.7v-.3c3.7-.2 6.5-1.3 6.5-2.7v-3.6a62.4 62.4 0 0 0 10.3.8 63.6 63.6 0 0 0 10-.7v6.5c0 1.5 3.2 2.7 7.3 2.7s7.4-1.2 7.4-2.7v-.3c3.6-.2 6.5-1.3 6.5-2.7v-10.7c8-6.8 12.2-16.8 12.2-30.8z" fill="#dff1fb"/>
  <path d="M122.1 70c5.5-4.5 11.3-1.5 11 3.4a4.6 4.6 0 0 1-4 4.3 3 3 0 0 1-3.3-4c1-2.8 4.6-2 4 .5m-67.9 43.3v-9.6m41.4 9.6v-9.6M57.1 31.2s10.7 5.2 13 7.4" fill="none" stroke="#1b243a" stroke-linecap="round" stroke-miterlimit="10" stroke-width="2"/>
  <path d="M49.5 59.2c-.6 1.9-1.8 3.2-2.5 3s-1-2-.3-4 1.7-3.1 2.5-2.9 1 2 .3 3.9z" fill="#1b243a"/>
  <path d="M122.1 73.3c0-11.3-7.5-23.8-21.2-30.4V46a30 30 0 0 0-3.6-1.6 51.8 51.8 0 0 0-18.6-3.3l-4.1.2v-3.1c-1.5 0-3 .2-4.5.4v-.1s-7.6-11-11-9.9c-1 .3-1.5 1.3-2 2.6-1.6-.7-3.1-1-4.1-.4-2.6 1.6-1.6 8.4-.6 13.1a30.2 30.2 0 0 0-17.7 21.6h-7.5c-2.3 0-3.1 5.2-3.1 11.5s.8 11.5 3.1 11.5h7.5c1.9 6.4 7.4 11 12.4 15.3v14c0 1.5 3.3 2.7 7.4 2.7s7.4-1.2 7.4-2.7v-.3c3.7-.2 6.5-1.3 6.5-2.7v-3.6a62.4 62.4 0 0 0 10.3.8 63.6 63.6 0 0 0 10-.7v6.5c0 1.5 3.2 2.7 7.3 2.7s7.4-1.2 7.4-2.7v-.3c3.6-.2 6.5-1.3 6.5-2.7v-10.7c8-6.8 12.2-16.8 12.2-30.8z" fill="none" stroke="#1b243a" stroke-linecap="round" stroke-miterlimit="10" stroke-width="2"/>
  <path d="M84.1 90.3a12.3 12.3 0 0 1-6.8 1.9 11.9 11.9 0 0 1-9.2-4 14 14 0 0 1-3.2-7.8H62v-2.2h2.6v-2.7H62v-2.3h3a14.4 14.4 0 0 1 3.7-7.7 12 12 0 0 1 9-3.7 12.7 12.7 0 0 1 6 1.4l-1 3a10.5 10.5 0 0 0-5-1.2 7.9 7.9 0 0 0-6 2.5 10.7 10.7 0 0 0-2.7 5.7h12.6v2.3h-13l-.1 1.9v.8h13.2v2.2H68.9a11 11 0 0 0 2.5 6 8.6 8.6 0 0 0 6.4 2.7 11.7 11.7 0 0 0 5.6-1.5z" fill="#aad2dc"/>
</svg>
