<svg xmlns="http://www.w3.org/2000/svg" width="152" height="152">
  <circle cx="76" cy="76" r="75" fill="none" stroke="#1b243a" stroke-miterlimit="10" stroke-width="2"/>
  <path d="M23.6 33.5V44h106V33.5a2 2 0 0 0-2-2h-102a2 2 0 0 0-2 2zm0 74.2a2 2 0 0 0 2 2h102a2 2 0 0 0 2-2V44h-106z" fill="#dff1fb"/>
  <path fill="#fff" d="M29.6 50h94v53.7h-94z"/>
  <path d="M33 37.8a1.8 1.8 0 1 1-1.7-1.8 1.8 1.8 0 0 1 1.8 1.8zm9.5 0a1.8 1.8 0 1 1-1.8-1.8 1.8 1.8 0 0 1 1.8 1.8zm9.3 0a1.8 1.8 0 1 1-1.7-1.8 1.8 1.8 0 0 1 1.7 1.8z" fill="none" stroke="#1b243a" stroke-miterlimit="10" stroke-width="1.5"/>
  <path d="M124.5 37.8a1.8 1.8 0 0 0-1.8-1.8H59.5a1.8 1.8 0 0 0 0 3.5h63.2a1.8 1.8 0 0 0 1.8-1.7z" fill="#fff"/>
  <path d="M23.6 107.7a2 2 0 0 0 2 2h102a2 2 0 0 0 2-2V44h-106zm84.6-76.2H103m-5.2 0H25.6a2 2 0 0 0-2 2V44h106V33.5a2 2 0 0 0-2-2h-14.2" fill="none" stroke="#1b243a" stroke-linecap="round" stroke-miterlimit="10" stroke-width="2"/>
  <path fill="none" stroke="#1b243a" stroke-linecap="round" stroke-miterlimit="10" stroke-width="2" d="M29.6 50h94v53.7h-94z"/>
  <path d="M124.5 37.8a1.8 1.8 0 0 0-1.8-1.8H59.5a1.8 1.8 0 0 0 0 3.5h63.2a1.8 1.8 0 0 0 1.8-1.7z" fill="none" stroke="#1b243a" stroke-miterlimit="10" stroke-width="1.5"/>
  <path d="M127.5 31.5h-51v78.2h51a2 2 0 0 0 2-2V33.5a2 2 0 0 0-2-2z" fill="#394053" fill-rule="evenodd" opacity=".1"/>
  <path d="M89.5 76.8a13 13 0 1 1-13-13 13 13 0 0 1 13 13z" fill="#febf02"/>
  <path d="M89.5 76.8a13 13 0 1 1-13-13 13 13 0 0 1 13 13z" fill="none" stroke="#1b243a" stroke-linecap="round" stroke-miterlimit="10" stroke-width="2"/>
  <path fill="#fea502" d="M76.5 68.5l2.5 5 5.5.9-4 3.8 1 5.6-5-2.6-5 2.6 1-5.5-4-4 5.5-.8 2.5-5z"/>
  <path fill="none" stroke="#1b243a" stroke-linecap="round" stroke-miterlimit="10" stroke-width="2" d="M76.5 94.2v5.9m0-46.5v4.5m-12.2 31l-7.2 7.2M96 57.4l-6.3 6.2M59.2 76.8h-5.9m46.5 0h-4.6M64.3 64.6l-7.2-7.2M96 96.3l-6.3-6.2"/>
  <path d="M97.4 121.4c0 .9-6.4 1.6-14.3 1.6s-14.3-.7-14.3-1.6 6.4-1.6 14.3-1.6 14.3.7 14.3 1.6z" fill="#febf02"/>
  <path d="M97.4 121.4c0 .9-6.4 1.6-14.3 1.6s-14.3-.7-14.3-1.6 6.4-1.6 14.3-1.6 14.3.7 14.3 1.6z" fill="none" stroke="#394053" stroke-linecap="round" stroke-miterlimit="10"/>
  <path d="M97.4 114.8c0 .9-6.4 1.6-14.3 1.6s-14.3-.7-14.3-1.6 6.4-1.6 14.3-1.6 14.3.7 14.3 1.6zm0 6.6c0 .9-6.4 1.6-14.3 1.6s-14.3-.7-14.3-1.6 6.4-1.6 14.3-1.6 14.3.7 14.3 1.6z" fill="#febf02"/>
  <path fill="#febf02" d="M68.8 114.8h28.7v6.6H68.8z"/>
  <path d="M97.4 114.8c0 .9-6.4 1.6-14.3 1.6s-14.3-.7-14.3-1.6 6.4-1.6 14.3-1.6 14.3.7 14.3 1.6z" fill="none" stroke="#1b243a" stroke-miterlimit="10" stroke-width="1.5"/>
  <path d="M68.8 121.4c0 .9 6.4 1.6 14.3 1.6s14.3-.7 14.3-1.6v-6.6c0-1-6.4-1.6-14.3-1.6s-14.3.7-14.3 1.6z" fill="none" stroke="#1b243a" stroke-miterlimit="10" stroke-width="1.5"/>
  <path fill="#fea502" d="M83.1 114.1l1.8.5H89l-3 .4.8.4-3.7-.2-3.7.2.7-.4-3-.4h4.2l1.8-.5z"/>
  <path d="M97.4 114.8c0 .9-6.4 1.6-14.3 1.6s-14.3-.7-14.3-1.6 6.4-1.6 14.3-1.6 14.3.7 14.3 1.6z" fill="#febf02"/>
  <path d="M97.4 114.8c0 .9-6.4 1.6-14.3 1.6s-14.3-.7-14.3-1.6 6.4-1.6 14.3-1.6 14.3.7 14.3 1.6z" fill="none" stroke="#394053" stroke-linecap="round" stroke-miterlimit="10"/>
  <path d="M97.4 108.2c0 .9-6.4 1.6-14.3 1.6s-14.3-.7-14.3-1.6 6.4-1.6 14.3-1.6 14.3.7 14.3 1.6zm0 6.6c0 .9-6.4 1.6-14.3 1.6s-14.3-.7-14.3-1.6 6.4-1.6 14.3-1.6 14.3.7 14.3 1.6z" fill="#febf02"/>
  <path fill="#febf02" d="M68.8 108.2h28.7v6.6H68.8z"/>
  <path d="M97.4 108.2c0 .9-6.4 1.6-14.3 1.6s-14.3-.7-14.3-1.6 6.4-1.6 14.3-1.6 14.3.7 14.3 1.6z" fill="none" stroke="#1b243a" stroke-miterlimit="10" stroke-width="1.5"/>
  <path d="M68.8 114.8c0 .9 6.4 1.6 14.3 1.6s14.3-.7 14.3-1.6v-6.6c0-1-6.4-1.6-14.3-1.6s-14.3.7-14.3 1.6z" fill="none" stroke="#1b243a" stroke-miterlimit="10" stroke-width="1.5"/>
  <path fill="#fea502" d="M83.1 107.5l1.8.5H89l-3 .3.8.5-3.7-.2-3.7.2.7-.5-3-.3h4.2l1.8-.5z"/>
  <path d="M97.4 108.2c0 .9-6.4 1.6-14.3 1.6s-14.3-.7-14.3-1.6 6.4-1.6 14.3-1.6 14.3.7 14.3 1.6z" fill="#febf02"/>
  <path d="M97.4 108.2c0 .9-6.4 1.6-14.3 1.6s-14.3-.7-14.3-1.6 6.4-1.6 14.3-1.6 14.3.7 14.3 1.6z" fill="none" stroke="#394053" stroke-linecap="round" stroke-miterlimit="10"/>
  <path d="M97.4 101.6c0 .9-6.4 1.6-14.3 1.6s-14.3-.8-14.3-1.6S75.2 100 83 100s14.3.7 14.3 1.6zm0 6.6c0 .9-6.4 1.6-14.3 1.6s-14.3-.7-14.3-1.6 6.4-1.6 14.3-1.6 14.3.7 14.3 1.6z" fill="#febf02"/>
  <path fill="#febf02" d="M68.8 101.6h28.7v6.6H68.8z"/>
  <path d="M97.4 101.6c0 .9-6.4 1.6-14.3 1.6s-14.3-.8-14.3-1.6S75.2 100 83 100s14.3.7 14.3 1.6z" fill="none" stroke="#1b243a" stroke-miterlimit="10" stroke-width="1.5"/>
  <path d="M68.8 108.2c0 .9 6.4 1.6 14.3 1.6s14.3-.7 14.3-1.6v-6.6c0-1-6.4-1.6-14.3-1.6s-14.3.7-14.3 1.6z" fill="none" stroke="#1b243a" stroke-miterlimit="10" stroke-width="1.5"/>
  <path fill="#fea502" d="M83.1 101l1.8.3 4.1.1-3 .3.8.5-3.7-.2-3.7.2.7-.5-3-.3h4.2l1.8-.5z"/>
  <path d="M55.4 122.4c0 .9-6.4 1.6-14.4 1.6s-14.3-.7-14.3-1.6 6.4-1.6 14.3-1.6 14.4.7 14.4 1.6z" fill="#febf02"/>
  <path d="M55.4 122.4c0 .9-6.4 1.6-14.4 1.6s-14.3-.7-14.3-1.6 6.4-1.6 14.3-1.6 14.4.7 14.4 1.6z" fill="none" stroke="#394053" stroke-linecap="round" stroke-miterlimit="10"/>
  <path d="M55.4 115.8c0 .8-6.4 1.6-14.4 1.6s-14.3-.8-14.3-1.7 6.4-1.6 14.3-1.6 14.4.8 14.4 1.7zm0 6.6c0 .9-6.4 1.6-14.4 1.6s-14.3-.7-14.3-1.6 6.4-1.6 14.3-1.6 14.4.7 14.4 1.6z" fill="#febf02"/>
  <path fill="#febf02" d="M26.7 115.8h28.7v6.6H26.7z"/>
  <path d="M55.4 115.8c0 .8-6.4 1.6-14.4 1.6s-14.3-.8-14.3-1.7 6.4-1.6 14.3-1.6 14.4.8 14.4 1.7z" fill="none" stroke="#1b243a" stroke-miterlimit="10" stroke-width="1.5"/>
  <path d="M26.7 122.4c0 .9 6.4 1.6 14.3 1.6s14.4-.7 14.4-1.6v-6.6c0-1-6.4-1.7-14.4-1.7s-14.3.8-14.3 1.7z" fill="none" stroke="#1b243a" stroke-miterlimit="10" stroke-width="1.5"/>
  <path fill="#fea502" d="M41 115.1l1.9.4 4 .1-2.9.3.7.5-3.7-.2-3.6.2.7-.5-3-.3h4.1l1.8-.5z"/>
  <path d="M55.4 115.8c0 .8-6.4 1.6-14.4 1.6s-14.3-.8-14.3-1.7 6.4-1.6 14.3-1.6 14.4.8 14.4 1.7z" fill="#febf02"/>
  <path d="M55.4 115.8c0 .8-6.4 1.6-14.4 1.6s-14.3-.8-14.3-1.7 6.4-1.6 14.3-1.6 14.4.8 14.4 1.7z" fill="none" stroke="#394053" stroke-linecap="round" stroke-miterlimit="10"/>
  <path d="M55.4 109.1c0 1-6.4 1.6-14.4 1.6s-14.3-.7-14.3-1.6 6.4-1.6 14.3-1.6 14.4.8 14.4 1.6zm0 6.7c0 .8-6.4 1.6-14.4 1.6s-14.3-.8-14.3-1.7 6.4-1.6 14.3-1.6 14.4.8 14.4 1.7z" fill="#febf02"/>
  <path fill="#febf02" d="M26.7 109.1h28.7v6.6H26.7z"/>
  <path d="M55.4 109.1c0 1-6.4 1.6-14.4 1.6s-14.3-.7-14.3-1.6 6.4-1.6 14.3-1.6 14.4.8 14.4 1.6z" fill="none" stroke="#1b243a" stroke-miterlimit="10" stroke-width="1.5"/>
  <path d="M26.7 115.8c0 .8 6.4 1.6 14.3 1.6s14.4-.8 14.4-1.7v-6.6c0-.8-6.4-1.6-14.4-1.6s-14.3.8-14.3 1.6z" fill="none" stroke="#1b243a" stroke-miterlimit="10" stroke-width="1.5"/>
  <path fill="#fea502" d="M41 108.5l1.9.4h4l-2.9.4.7.5-3.7-.2-3.6.2.7-.5-3-.3h4.1l1.8-.5z"/>
  <path d="M55.4 109.1c0 1-6.4 1.6-14.4 1.6s-14.3-.7-14.3-1.6 6.4-1.6 14.3-1.6 14.4.8 14.4 1.6z" fill="#febf02"/>
  <path d="M55.4 109.1c0 1-6.4 1.6-14.4 1.6s-14.3-.7-14.3-1.6 6.4-1.6 14.3-1.6 14.4.8 14.4 1.6z" fill="none" stroke="#394053" stroke-linecap="round" stroke-miterlimit="10"/>
  <path d="M55.4 102.5c0 1-6.4 1.6-14.4 1.6s-14.3-.7-14.3-1.6S33.1 101 41 101s14.4.7 14.4 1.6zm0 6.6c0 1-6.4 1.6-14.4 1.6s-14.3-.7-14.3-1.6 6.4-1.6 14.3-1.6 14.4.8 14.4 1.6z" fill="#febf02"/>
  <path fill="#febf02" d="M26.7 102.5h28.7v6.6H26.7z"/>
  <path d="M55.4 102.5c0 1-6.4 1.6-14.4 1.6s-14.3-.7-14.3-1.6S33.1 101 41 101s14.4.7 14.4 1.6z" fill="none" stroke="#1b243a" stroke-miterlimit="10" stroke-width="1.5"/>
  <path d="M26.7 109.1c0 1 6.4 1.6 14.3 1.6s14.4-.7 14.4-1.6v-6.6c0-.9-6.4-1.6-14.4-1.6s-14.3.7-14.3 1.6z" fill="none" stroke="#1b243a" stroke-miterlimit="10" stroke-width="1.5"/>
  <path fill="#fea502" d="M41 101.9l1.9.4h4l-2.9.4.7.5-3.7-.3-3.6.3.7-.5-3-.3h4.1l1.8-.5z"/>
  <path d="M55.4 102.5c0 1-6.4 1.6-14.4 1.6s-14.3-.7-14.3-1.6S33.1 101 41 101s14.4.7 14.4 1.6z" fill="#febf02"/>
  <path d="M55.4 102.5c0 1-6.4 1.6-14.4 1.6s-14.3-.7-14.3-1.6S33.1 101 41 101s14.4.7 14.4 1.6z" fill="none" stroke="#394053" stroke-linecap="round" stroke-miterlimit="10"/>
  <path d="M55.4 96c0 .8-6.4 1.5-14.4 1.5s-14.3-.7-14.3-1.6 6.4-1.6 14.3-1.6 14.4.7 14.4 1.6zm0 6.5c0 1-6.4 1.6-14.4 1.6s-14.3-.7-14.3-1.6S33.1 101 41 101s14.4.7 14.4 1.6z" fill="#febf02"/>
  <path fill="#febf02" d="M26.7 95.9h28.7v6.6H26.7z"/>
  <path d="M55.4 96c0 .8-6.4 1.5-14.4 1.5s-14.3-.7-14.3-1.6 6.4-1.6 14.3-1.6 14.4.7 14.4 1.6z" fill="none" stroke="#1b243a" stroke-miterlimit="10" stroke-width="1.5"/>
  <path d="M26.7 102.5c0 1 6.4 1.6 14.3 1.6s14.4-.7 14.4-1.6V96c0-.9-6.4-1.6-14.4-1.6S26.7 95 26.7 96z" fill="none" stroke="#1b243a" stroke-miterlimit="10" stroke-width="1.5"/>
  <path fill="#fea502" d="M41 95.3l1.9.4h4l-2.9.4.7.5-3.7-.3-3.6.3.7-.5-3-.3 4.1-.1 1.8-.4z"/>
  <path d="M55.4 96c0 .8-6.4 1.5-14.4 1.5s-14.3-.7-14.3-1.6 6.4-1.6 14.3-1.6 14.4.7 14.4 1.6z" fill="#febf02"/>
  <path d="M55.4 96c0 .8-6.4 1.5-14.4 1.5s-14.3-.7-14.3-1.6 6.4-1.6 14.3-1.6 14.4.7 14.4 1.6z" fill="none" stroke="#394053" stroke-linecap="round" stroke-miterlimit="10"/>
  <path d="M55.4 89.3c0 .9-6.4 1.6-14.4 1.6s-14.3-.7-14.3-1.6 6.4-1.6 14.4-1.6 14.3.7 14.3 1.6zm0 6.7c0 .8-6.4 1.5-14.4 1.5s-14.3-.7-14.3-1.6 6.4-1.6 14.3-1.6 14.4.7 14.4 1.6z" fill="#febf02"/>
  <path fill="#febf02" d="M26.7 89.3h28.7v6.6H26.7z"/>
  <path d="M55.4 89.3c0 .9-6.4 1.6-14.4 1.6s-14.3-.7-14.3-1.6 6.4-1.6 14.4-1.6 14.3.7 14.3 1.6z" fill="none" stroke="#1b243a" stroke-miterlimit="10" stroke-width="1.5"/>
  <path d="M26.7 96c0 .8 6.4 1.5 14.3 1.5s14.4-.7 14.4-1.6v-6.6c0-.9-6.4-1.6-14.4-1.6s-14.3.7-14.3 1.6z" fill="none" stroke="#1b243a" stroke-miterlimit="10" stroke-width="1.5"/>
  <path fill="#fea502" d="M41 88.7l1.9.4h4l-2.9.4.7.5-3.7-.3-3.6.3.7-.5-3-.3 4.1-.1 1.8-.4z"/>
  <path d="M75 129c0 .9-6.4 1.6-14.3 1.6s-14.4-.7-14.4-1.6 6.5-1.6 14.4-1.6S75 128 75 129z" fill="#febf02"/>
  <path d="M75 129c0 .9-6.4 1.6-14.3 1.6s-14.4-.7-14.4-1.6 6.5-1.6 14.4-1.6S75 128 75 129z" fill="none" stroke="#394053" stroke-linecap="round" stroke-miterlimit="10"/>
  <path d="M75 122.4c0 .9-6.4 1.6-14.3 1.6s-14.4-.7-14.4-1.6 6.5-1.6 14.4-1.6 14.3.7 14.3 1.6zm0 6.6c0 .9-6.4 1.6-14.3 1.6s-14.4-.7-14.4-1.6 6.5-1.6 14.4-1.6S75 128 75 129z" fill="#febf02"/>
  <path fill="#febf02" d="M46.3 122.4H75v6.6H46.3z"/>
  <path d="M75 122.4c0 .9-6.4 1.6-14.3 1.6s-14.4-.7-14.4-1.6 6.5-1.6 14.4-1.6 14.3.7 14.3 1.6z" fill="none" stroke="#1b243a" stroke-miterlimit="10" stroke-width="1.5"/>
  <path d="M46.3 129c0 .9 6.5 1.6 14.4 1.6S75 129.9 75 129v-6.6c0-1-6.4-1.7-14.3-1.7s-14.4.8-14.4 1.7z" fill="none" stroke="#1b243a" stroke-miterlimit="10" stroke-width="1.5"/>
  <path fill="#fea502" d="M60.7 121.7l1.8.4 4.1.1-3 .3.7.5-3.6-.2-3.7.2.7-.5-3-.3h4.1l1.9-.5z"/>
  <path d="M75 122.4c0 .9-6.4 1.6-14.3 1.6s-14.4-.7-14.4-1.6 6.5-1.6 14.4-1.6 14.3.7 14.3 1.6z" fill="#febf02"/>
  <path d="M75 122.4c0 .9-6.4 1.6-14.3 1.6s-14.4-.7-14.4-1.6 6.5-1.6 14.4-1.6 14.3.7 14.3 1.6z" fill="none" stroke="#394053" stroke-linecap="round" stroke-miterlimit="10"/>
  <path d="M75 115.8c0 .8-6.4 1.6-14.3 1.6s-14.4-.8-14.4-1.7 6.5-1.6 14.4-1.6 14.3.8 14.3 1.7zm0 6.6c0 .9-6.4 1.6-14.3 1.6s-14.4-.7-14.4-1.6 6.5-1.6 14.4-1.6 14.3.7 14.3 1.6z" fill="#febf02"/>
  <path fill="#febf02" d="M46.3 115.8H75v6.6H46.3z"/>
  <path d="M75 115.8c0 .8-6.4 1.6-14.3 1.6s-14.4-.8-14.4-1.7 6.5-1.6 14.4-1.6 14.3.8 14.3 1.7z" fill="none" stroke="#1b243a" stroke-miterlimit="10" stroke-width="1.5"/>
  <path d="M46.3 122.4c0 .9 6.5 1.6 14.4 1.6s14.3-.7 14.3-1.6v-6.6c0-1-6.4-1.7-14.3-1.7s-14.4.8-14.4 1.7z" fill="none" stroke="#1b243a" stroke-miterlimit="10" stroke-width="1.5"/>
  <path fill="#fea502" d="M60.7 115.1l1.8.4 4.1.1-3 .3.7.5-3.6-.2-3.7.2.7-.5-3-.3h4.1l1.9-.5z"/>
  <path d="M75 115.8c0 .8-6.4 1.6-14.3 1.6s-14.4-.8-14.4-1.7 6.5-1.6 14.4-1.6 14.3.8 14.3 1.7z" fill="#febf02"/>
  <path d="M75 115.8c0 .8-6.4 1.6-14.3 1.6s-14.4-.8-14.4-1.7 6.5-1.6 14.4-1.6 14.3.8 14.3 1.7z" fill="none" stroke="#394053" stroke-linecap="round" stroke-miterlimit="10"/>
  <path d="M75 109.1c0 1-6.4 1.6-14.3 1.6s-14.4-.7-14.4-1.6 6.5-1.6 14.4-1.6 14.3.8 14.3 1.6zm0 6.7c0 .8-6.4 1.6-14.3 1.6s-14.4-.8-14.4-1.7 6.5-1.6 14.4-1.6 14.3.8 14.3 1.7z" fill="#febf02"/>
  <path fill="#febf02" d="M46.3 109.1H75v6.6H46.3z"/>
  <path d="M75 109.1c0 1-6.4 1.6-14.3 1.6s-14.4-.7-14.4-1.6 6.5-1.6 14.4-1.6 14.3.8 14.3 1.6z" fill="none" stroke="#1b243a" stroke-miterlimit="10" stroke-width="1.5"/>
  <path d="M46.3 115.8c0 .8 6.5 1.6 14.4 1.6s14.3-.8 14.3-1.7v-6.6c0-.8-6.4-1.6-14.3-1.6s-14.4.8-14.4 1.6z" fill="none" stroke="#1b243a" stroke-miterlimit="10" stroke-width="1.5"/>
  <path fill="#fea502" d="M60.7 108.5l1.8.4h4.1l-3 .4.7.5-3.6-.2-3.7.2.7-.5-3-.3h4.1l1.9-.5z"/>
  <path d="M75 109.1c0 1-6.4 1.6-14.3 1.6s-14.4-.7-14.4-1.6 6.5-1.6 14.4-1.6 14.3.8 14.3 1.6z" fill="#febf02"/>
  <path d="M75 109.1c0 1-6.4 1.6-14.3 1.6s-14.4-.7-14.4-1.6 6.5-1.6 14.4-1.6 14.3.8 14.3 1.6z" fill="none" stroke="#394053" stroke-linecap="round" stroke-miterlimit="10"/>
  <path d="M75 102.5c0 1-6.4 1.6-14.3 1.6s-14.4-.7-14.4-1.6 6.5-1.6 14.4-1.6 14.3.7 14.3 1.6zm0 6.6c0 1-6.4 1.6-14.3 1.6s-14.4-.7-14.4-1.6 6.5-1.6 14.4-1.6 14.3.8 14.3 1.6z" fill="#febf02"/>
  <path fill="#febf02" d="M46.3 102.5H75v6.6H46.3z"/>
  <path d="M75 102.5c0 1-6.4 1.6-14.3 1.6s-14.4-.7-14.4-1.6 6.5-1.6 14.4-1.6 14.3.7 14.3 1.6z" fill="none" stroke="#1b243a" stroke-miterlimit="10" stroke-width="1.5"/>
  <path d="M46.3 109.1c0 1 6.5 1.6 14.4 1.6S75 110 75 109.1v-6.6c0-.9-6.4-1.6-14.3-1.6s-14.4.7-14.4 1.6z" fill="none" stroke="#1b243a" stroke-miterlimit="10" stroke-width="1.5"/>
  <path fill="#fea502" d="M60.7 101.9l1.8.4h4.1l-3 .4.7.5-3.6-.3-3.7.3.7-.5-3-.3h4.1l1.9-.5z"/>
  <path d="M75 102.5c0 1-6.4 1.6-14.3 1.6s-14.4-.7-14.4-1.6 6.5-1.6 14.4-1.6 14.3.7 14.3 1.6z" fill="#febf02"/>
  <path d="M75 102.5c0 1-6.4 1.6-14.3 1.6s-14.4-.7-14.4-1.6 6.5-1.6 14.4-1.6 14.3.7 14.3 1.6z" fill="none" stroke="#394053" stroke-linecap="round" stroke-miterlimit="10"/>
  <path d="M75 96c0 .8-6.4 1.5-14.3 1.5s-14.4-.7-14.4-1.6 6.5-1.6 14.4-1.6S75 95 75 96zm0 6.5c0 1-6.4 1.6-14.3 1.6s-14.4-.7-14.4-1.6 6.5-1.6 14.4-1.6 14.3.7 14.3 1.6z" fill="#febf02"/>
  <path fill="#febf02" d="M46.3 95.9H75v6.6H46.3z"/>
  <path d="M75 96c0 .8-6.4 1.5-14.3 1.5s-14.4-.7-14.4-1.6 6.5-1.6 14.4-1.6S75 95 75 96z" fill="none" stroke="#1b243a" stroke-miterlimit="10" stroke-width="1.5"/>
  <path d="M46.3 102.5c0 1 6.5 1.6 14.4 1.6s14.3-.7 14.3-1.6V96c0-.9-6.4-1.6-14.3-1.6S46.3 95 46.3 96z" fill="none" stroke="#1b243a" stroke-miterlimit="10" stroke-width="1.5"/>
  <path fill="#fea502" d="M60.7 95.3l1.8.4h4.1l-3 .4.7.5-3.6-.3-3.7.3.7-.5-3-.3 4.1-.1 1.9-.4z"/>
</svg>
